<svg width="304" height="749" viewBox="0 0 304 749" fill="none" xmlns="http://www.w3.org/2000/svg">
<path d="M-317.131 128.203C-347.475 48.3103 -264.04 -27.312 -187.506 10.7147L-96.7446 55.8102C-63.0619 72.5458 -23.8865 74.3136 11.1666 60.6798L36.7472 50.7304C189.32 -8.61205 343.006 134.386 294.796 290.833L243.972 455.763C233.393 490.095 238.142 527.323 257.002 557.899V557.899C315.158 652.184 230.611 769.809 122.708 744.733L-140.763 683.503C-171.816 676.286 -204.374 685.975 -226.43 708.996V708.996C-291.118 776.515 -403.192 713.297 -378.865 623.01L-374.821 608.001C-369.623 588.712 -370.686 568.271 -377.855 549.625L-449.369 363.632C-469.088 312.347 -413.669 264.602 -365.866 291.691V291.691C-318.166 318.722 -262.81 271.227 -282.276 219.974L-317.131 128.203Z" fill="#EAF7EA"/>
</svg>
