<svg width="282" height="796" viewBox="0 0 282 796" fill="none" xmlns="http://www.w3.org/2000/svg">
<path d="M184.543 150.342C139.306 70.6879 216.087 -22.8057 303.016 6.0795L537.021 83.8359C572.7 95.6913 611.048 96.9636 647.434 87.4991L785.704 51.5331C981.637 0.568058 1148.71 200.244 1063.99 384.116L1029.53 458.903C1009.83 501.647 1017.79 552.043 1049.7 586.639V586.639C1124.49 667.723 1055.17 797.679 946.173 780.738L425.793 699.861C391.27 694.495 356.009 702.663 327.36 722.66L251.427 775.665C163.335 837.156 49.2314 746.35 89.3782 646.702V646.702C101.767 615.954 99.3524 581.22 82.8293 552.48L11.3365 428.13C-26.7252 361.928 39.2231 284.521 110.631 311.584V311.584C181.838 338.57 247.743 261.627 210.138 195.411L184.543 150.342Z" fill="#FEE6E6"/>
</svg>
