<svg width="120" height="120" viewBox="0 0 120 120" fill="none" xmlns="http://www.w3.org/2000/svg">
<circle cx="60" cy="60" r="60" fill="#EAF7EA"/>
<path d="M59.5 66.0786C71.6756 66.0786 81.5459 56.2083 81.5459 44.0327C81.5459 31.857 71.6756 21.9868 59.5 21.9868C47.3244 21.9868 37.4541 31.857 37.4541 44.0327C37.4541 56.2083 47.3244 66.0786 59.5 66.0786Z" fill="#5B412C"/>
<path d="M76.0356 86.1641C76.0356 95.2965 42.9647 95.2965 42.9647 86.1641C42.9647 77.032 50.3679 69.6288 59.5 69.6288C68.6324 69.6288 76.0356 77.032 76.0356 86.1641Z" fill="#0A717F"/>
<path d="M59.5 69.6288C51.3377 69.6288 44.5574 75.5432 43.2092 83.3202C46.0538 90.7054 72.9465 90.7054 75.791 83.3202C74.4429 75.5432 67.6626 69.6288 59.5 69.6288Z" fill="#19929B"/>
<path d="M59.5 78.5415C63.1177 78.5415 66.0503 75.6088 66.0503 71.9911C66.0503 68.3735 63.1177 65.4408 59.5 65.4408C55.8823 65.4408 52.9497 68.3735 52.9497 71.9911C52.9497 75.6088 55.8823 78.5415 59.5 78.5415Z" fill="#FFBF94"/>
<path d="M59.5 65.4408C56.5791 65.4408 54.1056 67.3534 53.2609 69.9941C54.1056 72.6348 56.579 74.5473 59.5 74.5473C62.4212 74.5473 64.8949 72.6348 65.7394 69.9941C64.8947 67.3534 62.421 65.4408 59.5 65.4408Z" fill="#ED9572"/>
<path d="M47.6178 41.9819C47.6178 47.6854 41.9728 51.7407 41.0241 50.7569C39.2663 48.9345 38.0963 45.6859 38.0963 41.9819C38.0963 36.2782 40.8704 31.6547 44.2926 31.6547C47.7147 31.6547 47.6178 36.2782 47.6178 41.9819Z" fill="#7C4E2E"/>
<path d="M39.0993 59.8493C42.0552 59.8493 44.4514 57.4531 44.4514 54.4972C44.4514 51.5414 42.0552 49.1451 39.0993 49.1451C36.1434 49.1451 33.7472 51.5414 33.7472 54.4972C33.7472 57.4531 36.1434 59.8493 39.0993 59.8493Z" fill="#FFBF94"/>
<path d="M39.0993 57.7721C36.4989 57.7721 34.3324 55.9174 33.8488 53.4586C33.7828 53.7947 33.7473 54.1417 33.7473 54.4972C33.7473 57.453 36.1435 59.8491 39.0994 59.8491C42.0553 59.8491 44.4515 57.453 44.4515 54.4972C44.4515 54.1417 44.4161 53.7947 44.35 53.4586C43.8662 55.9174 41.6997 57.7721 39.0993 57.7721Z" fill="#ED9572"/>
<path d="M79.9009 59.8493C82.8568 59.8493 85.253 57.4531 85.253 54.4972C85.253 51.5414 82.8568 49.1451 79.9009 49.1451C76.945 49.1451 74.5488 51.5414 74.5488 54.4972C74.5488 57.4531 76.945 59.8493 79.9009 59.8493Z" fill="#FFBF94"/>
<path d="M79.9009 57.7721C77.3005 57.7721 75.1341 55.9174 74.6503 53.4586C74.5842 53.7947 74.5488 54.1417 74.5488 54.4972C74.5488 57.453 76.9451 59.8491 79.9009 59.8491C82.8569 59.8491 85.253 57.453 85.253 54.4972C85.253 54.1417 85.2175 53.7947 85.1515 53.4586C84.6679 55.9174 82.5011 57.7721 79.9009 57.7721Z" fill="#ED9572"/>
<path d="M78.2497 46.5091C77.8312 36.5151 70.0798 28.5405 59.5045 28.5361C59.5031 28.5361 59.5016 28.5359 59.5 28.5359C59.4985 28.5359 59.4971 28.5359 59.4958 28.5359C48.9205 28.5403 41.1692 36.5152 40.7506 46.5091H40.7324V58.012H40.7506C41.1691 68.0057 49.5587 72.787 59.4958 72.7899C59.4972 72.7899 59.4987 72.7899 59.5 72.7899C59.5018 72.7899 59.5031 72.7899 59.5045 72.7899C69.4415 72.787 77.8312 68.0057 78.2497 58.012H78.2677V46.5091H78.2497Z" fill="#FFF2DC"/>
<path d="M78.2497 46.5091C77.8312 36.5151 70.0798 28.5405 59.5045 28.5361C59.5031 28.5361 59.5016 28.5359 59.5 28.5359C59.4985 28.5359 59.4971 28.5359 59.4958 28.5359C48.9205 28.5403 41.1692 36.5152 40.7506 46.5091H40.7324V58.012H40.7506C41.1691 68.0057 49.5587 72.787 59.4958 72.7899C59.4972 72.7899 59.4987 72.7899 59.5 72.7899C59.5018 72.7899 59.5031 72.7899 59.5045 72.7899C69.4415 72.787 77.8312 68.0057 78.2497 58.012H78.2677V46.5091H78.2497Z" fill="#FFBF94"/>
<path d="M66.0495 72.028C66.0294 75.6286 63.1051 78.5414 59.5 78.5414C55.8898 78.5414 52.9621 75.6204 52.9504 72.0128C52.4456 71.8855 51.9509 71.7418 51.4671 71.5827C51.4604 71.7181 51.4567 71.8541 51.4567 71.9911C51.4567 76.4334 55.0579 80.0346 59.5 80.0346C63.9424 80.0346 67.5436 76.4334 67.5436 71.9911C67.5436 71.8609 67.5399 71.7317 67.5339 71.6031C67.0494 71.7605 66.5544 71.902 66.0495 72.028Z" fill="white"/>
<path d="M58.9338 25.6489C67.9229 25.6489 70.7519 29.8061 74.9201 33.3374C78.343 36.2378 83.3037 34.982 83.3037 35.0902C83.3037 39.2155 67.7226 42.5596 58.9338 42.5596C50.1451 42.5596 43.8994 39.2155 43.8994 35.0902C43.8994 30.9649 50.1451 25.6489 58.9338 25.6489Z" fill="#7C4E2E"/>
<path d="M42.8182 86.1641C42.8182 88.6622 45.2939 90.476 48.8891 91.6073V73.3646C45.1842 76.3968 42.8182 81.0031 42.8182 86.1641Z" fill="#E5E5E5"/>
<path d="M76.1821 86.1641C76.1821 81.5057 74.2546 77.2985 71.155 74.2933V91.2481C74.177 90.107 76.1821 88.4125 76.1821 86.1641Z" fill="#E5E5E5"/>
<path d="M43.0627 83.3202C43.7686 85.1529 45.9564 86.5303 48.8891 87.4533V73.364C45.8806 75.8264 43.755 79.3269 43.0627 83.3202Z" fill="white"/>
<path d="M75.9375 83.3202C75.3284 79.806 73.6089 76.6733 71.155 74.2938V87.093C73.5577 86.1851 75.318 84.928 75.9375 83.3202Z" fill="white"/>
<path d="M47.5179 64.0029C49.9884 64.0029 51.9912 62.0001 51.9912 59.5296C51.9912 57.059 49.9884 55.0562 47.5179 55.0562C45.0473 55.0562 43.0445 57.059 43.0445 59.5296C43.0445 62.0001 45.0473 64.0029 47.5179 64.0029Z" fill="#F97A7A"/>
<path d="M71.4824 64.0029C73.953 64.0029 75.9558 62.0001 75.9558 59.5296C75.9558 57.059 73.953 55.0562 71.4824 55.0562C69.0119 55.0562 67.0091 57.059 67.0091 59.5296C67.0091 62.0001 69.0119 64.0029 71.4824 64.0029Z" fill="#F97A7A"/>
<path d="M52.5099 54.2574C53.9216 54.2574 55.0661 53.113 55.0661 51.7013C55.0661 50.2896 53.9216 49.1451 52.5099 49.1451C51.0982 49.1451 49.9538 50.2896 49.9538 51.7013C49.9538 53.113 51.0982 54.2574 52.5099 54.2574Z" fill="#493E2F"/>
<path d="M66.4407 54.2574C67.8524 54.2574 68.9969 53.113 68.9969 51.7013C68.9969 50.2896 67.8524 49.1451 66.4407 49.1451C65.029 49.1451 63.8846 50.2896 63.8846 51.7013C63.8846 53.113 65.029 54.2574 66.4407 54.2574Z" fill="#493E2F"/>
<path d="M59.5798 63.0275C58.2502 63.0275 56.9206 62.5214 55.9082 61.5092C55.565 61.1658 55.565 60.6093 55.9082 60.2661C56.2514 59.923 56.8081 59.923 57.1511 60.2661C58.4906 61.6057 60.6695 61.6054 62.0085 60.2661C62.3519 59.923 62.9084 59.923 63.2516 60.2661C63.595 60.6094 63.595 61.1659 63.2516 61.5092C62.2394 62.5214 60.9096 63.0275 59.5798 63.0275Z" fill="#F97A7A"/>
</svg>
