<svg width="590" height="409" viewBox="0 0 590 409" fill="none" xmlns="http://www.w3.org/2000/svg">
<g filter="url(#filter0_d_119_38)">
<path fill-rule="evenodd" clip-rule="evenodd" d="M0 -23H1.04571H796.388L801.365 0H811.582L897 361.58L880.015 363.482L881.788 371.674L882 372.656L881.003 372.778L699.255 395H617.753C553.348 395 492.883 363.984 455.311 311.673L385.747 214.819C371.357 194.785 352.776 179.032 331.856 168.184C300.972 157.136 266.775 155.532 233.82 164.858C197.589 175.111 160.63 172.098 128.244 158.622C80.217 144.701 39.9327 107.583 24.2131 56.1786L0.305804 -22L0 -23ZM338.756 170.833C357.187 181.533 373.569 196.151 386.559 214.236L456.124 311.09C493.508 363.139 553.67 394 617.753 394H699.194L880.791 371.796L879.016 363.594L714.67 382H628.319C566.879 382 508.848 353.76 470.936 305.412L404.275 220.402C386.707 197.997 363.995 181.19 338.756 170.833ZM800.342 0H17L37.3575 60.9754C51.634 103.737 82.2133 136.654 120 154.917C76.0821 139.344 39.8472 103.883 25.1694 55.8862L1.35152 -22H795.581L800.342 0Z" fill="#FECEDF"/>
</g>
<defs>
<filter id="filter0_d_119_38" x="0" y="-23" width="911" height="432" filterUnits="userSpaceOnUse" color-interpolation-filters="sRGB">
<feFlood flood-opacity="0" result="BackgroundImageFix"/>
<feColorMatrix in="SourceAlpha" type="matrix" values="0 0 0 0 0 0 0 0 0 0 0 0 0 0 0 0 0 0 127 0" result="hardAlpha"/>
<feOffset dx="10" dy="10"/>
<feGaussianBlur stdDeviation="2"/>
<feComposite in2="hardAlpha" operator="out"/>
<feColorMatrix type="matrix" values="0 0 0 0 0 0 0 0 0 0 0 0 0 0 0 0 0 0 0.25 0"/>
<feBlend mode="normal" in2="BackgroundImageFix" result="effect1_dropShadow_119_38"/>
<feBlend mode="normal" in="SourceGraphic" in2="effect1_dropShadow_119_38" result="shape"/>
</filter>
</defs>
</svg>
