<svg width="141" height="514" viewBox="0 0 141 514" fill="none" xmlns="http://www.w3.org/2000/svg">
<path d="M-258.7 317.314C-220.616 294.526 -204.429 247.655 -220.335 206.222L-227.669 187.115C-246.645 137.682 -229.632 81.6756 -186.367 51.1503L-156.589 30.1408C-91.1963 -15.9958 -1.94696 -7.64648 53.7534 49.8184L81.6854 78.6352C119.55 117.7 140.725 169.968 140.725 224.372V269.847C140.725 346.139 91.2742 413.629 18.5291 436.619C2.92032 441.552 -11.9186 448.652 -25.5533 457.711L-69.1531 486.679C-111.778 514.999 -165.383 521.205 -213.352 503.373L-229.564 497.346C-249.346 489.993 -266.43 476.808 -278.558 459.536L-286.548 448.156C-317.037 404.733 -304.229 344.557 -258.7 317.314Z" fill="#FEE6E6"/>
</svg>
