<svg width="362" height="514" viewBox="0 0 362 514" fill="none" xmlns="http://www.w3.org/2000/svg">
<path d="M45.2998 317.259C83.3842 294.47 99.5707 247.6 83.6653 206.166L76.3306 187.059C57.3545 137.626 74.3679 81.6201 117.633 51.0947L147.411 30.0853C212.804 -16.0513 302.053 -7.70198 357.753 49.7629L385.685 78.5797C423.55 117.644 444.725 169.912 444.725 224.316V269.791C444.725 346.083 395.274 413.573 322.529 436.564C306.92 441.497 292.081 448.597 278.447 457.656L234.847 486.623C192.222 514.943 138.617 521.149 90.6483 503.318L74.4357 497.291C54.6539 489.937 37.5698 476.753 25.4424 459.481L17.4517 448.1C-13.037 404.677 -0.229279 344.502 45.2998 317.259Z" fill="#FEE6E6"/>
</svg>
