<svg width="212" height="58" viewBox="0 0 212 58" fill="none" xmlns="http://www.w3.org/2000/svg">
<path d="M26.3871 10H41.1935L56 28.5769L29 56L2 28.5769L16.8065 10H29V56" stroke="black" stroke-width="2" stroke-miterlimit="10"/>
<path d="M28.9999 55.1154L16.8064 28.5769L22.0322 10" stroke="black" stroke-width="2" stroke-miterlimit="10"/>
<path d="M29 55.1154L41.1935 28.5769L35.9677 10" stroke="black" stroke-width="2" stroke-miterlimit="10"/>
<path d="M2 28.5769H56" stroke="black" stroke-width="2" stroke-miterlimit="10"/>
<path d="M80.84 46.04C79.56 45.6667 78.6667 45.2933 78.16 44.92C77.68 44.5467 77.44 44.08 77.44 43.52C77.44 43.0933 77.56 42.4933 77.8 41.72C78.04 40.9467 78.3867 40.04 78.84 39C79.32 37.9333 79.88 36.76 80.52 35.48C81.1867 34.2 81.9333 32.8267 82.76 31.36C82.0667 31.3333 81.44 31.32 80.88 31.32C80.3467 31.2933 79.9067 31.28 79.56 31.28C79.72 30.88 80.1733 30.5333 80.92 30.24C81.6667 29.9467 82.6533 29.6933 83.88 29.48C84.92 27.7467 86.0267 26.0933 87.2 24.52C88.4 22.9467 89.6 21.5067 90.8 20.2C92 18.8667 93.2 17.7067 94.4 16.72C95.6 15.7067 96.7467 14.9067 97.84 14.32C97.8667 14.1333 97.88 13.9733 97.88 13.84C97.9067 13.7067 97.92 13.6133 97.92 13.56C98.2933 13.56 98.7867 13.6533 99.4 13.84C100.04 14.0267 100.653 14.2533 101.24 14.52C101.853 14.7867 102.387 15.0667 102.84 15.36C103.32 15.6267 103.587 15.8533 103.64 16.04C102.76 17.5867 101.893 19.9067 101.04 23C100.187 26.0667 99.48 29.7467 98.92 34.04C98.7867 35.1067 98.6667 36.32 98.56 37.68C98.48 39.04 98.44 40.56 98.44 42.24C98.44 42.8267 98.44 43.4267 98.44 44.04C98.44 44.6533 98.4667 45.2933 98.52 45.96C98.4667 45.9867 98.4133 46 98.36 46C98.3067 46 98.2 46 98.04 46C97.6667 46 97.2267 45.9333 96.72 45.8C96.24 45.6933 95.76 45.5467 95.28 45.36C94.8267 45.2 94.4267 45.0133 94.08 44.8C93.76 44.5867 93.56 44.4 93.48 44.24C93.4533 43.8933 93.44 43.5467 93.44 43.2C93.44 42.88 93.44 42.5333 93.44 42.16C93.44 40.5067 93.4933 38.8267 93.6 37.12C93.7333 35.4133 93.9467 33.6533 94.24 31.84C93.8667 31.8133 93.3733 31.7867 92.76 31.76C92.1467 31.7067 91.4533 31.6667 90.68 31.64C89.9333 31.6133 89.12 31.5867 88.24 31.56C87.3867 31.5067 86.5467 31.4667 85.72 31.44C85.08 32.64 84.48 33.84 83.92 35.04C83.36 36.2133 82.88 37.4 82.48 38.6C82.0267 39.88 81.6533 41.16 81.36 42.44C81.0933 43.72 80.92 44.92 80.84 46.04ZM96.28 22C96.3867 21.6267 96.5067 21.12 96.64 20.48C96.8 19.8133 96.9467 19.12 97.08 18.4C96.4133 18.64 95.6667 19.08 94.84 19.72C94.04 20.36 93.2 21.16 92.32 22.12C91.4667 23.0533 90.5867 24.12 89.68 25.32C88.8 26.4933 87.9467 27.7467 87.12 29.08C89.36 28.8933 91.9067 28.7733 94.76 28.72C94.9733 27.6 95.2 26.4933 95.44 25.4C95.7067 24.28 95.9867 23.1467 96.28 22ZM103.41 40.44C103.41 39.2667 103.69 37.6267 104.25 35.52C104.81 33.3867 105.597 30.9067 106.61 28.08C108.264 23.5733 109.81 19.8267 111.25 16.84C112.717 13.8267 114.144 11.48 115.53 9.8C115.85 9.85333 116.237 9.98666 116.69 10.2C117.17 10.4133 117.637 10.6533 118.09 10.92C118.544 11.16 118.944 11.4133 119.29 11.68C119.664 11.9467 119.904 12.16 120.01 12.32C117.93 14.7733 116.104 17.4133 114.53 20.24C112.957 23.0667 111.517 26.3067 110.21 29.96C109.09 33.1067 108.237 35.9467 107.65 38.48C107.064 40.9867 106.77 43.08 106.77 44.76C106.77 45.2133 106.77 45.4933 106.77 45.6C106.77 45.7067 106.784 45.8133 106.81 45.92C106.437 45.8667 106.117 45.7733 105.85 45.64C105.584 45.5067 105.41 45.3467 105.33 45.16C105.277 45.0267 105.13 44.8267 104.89 44.56C104.65 44.32 104.437 44.1333 104.25 44C104.01 43.84 103.81 43.4267 103.65 42.76C103.49 42.0667 103.41 41.2933 103.41 40.44ZM112.863 40.44C112.863 39.2667 113.143 37.6267 113.703 35.52C114.263 33.3867 115.05 30.9067 116.063 28.08C117.717 23.5733 119.263 19.8267 120.703 16.84C122.17 13.8267 123.597 11.48 124.983 9.8C125.303 9.85333 125.69 9.98666 126.143 10.2C126.623 10.4133 127.09 10.6533 127.543 10.92C127.997 11.16 128.397 11.4133 128.743 11.68C129.117 11.9467 129.357 12.16 129.463 12.32C127.383 14.7733 125.557 17.4133 123.983 20.24C122.41 23.0667 120.97 26.3067 119.663 29.96C118.543 33.1067 117.69 35.9467 117.103 38.48C116.517 40.9867 116.223 43.08 116.223 44.76C116.223 45.2133 116.223 45.4933 116.223 45.6C116.223 45.7067 116.237 45.8133 116.263 45.92C115.89 45.8667 115.57 45.7733 115.303 45.64C115.037 45.5067 114.863 45.3467 114.783 45.16C114.73 45.0267 114.583 44.8267 114.343 44.56C114.103 44.32 113.89 44.1333 113.703 44C113.463 43.84 113.263 43.4267 113.103 42.76C112.943 42.0667 112.863 41.2933 112.863 40.44ZM148.597 16.04C148.677 16.4933 148.73 16.8133 148.757 17C148.81 17.16 148.837 17.3867 148.837 17.68C148.837 18.56 148.637 19.3867 148.237 20.16C147.863 20.9067 147.343 21.44 146.677 21.76C146.143 21.04 145.49 20.4267 144.717 19.92C143.943 19.3867 143.09 18.96 142.157 18.64C141.25 18.2933 140.303 18.04 139.317 17.88C138.33 17.72 137.37 17.64 136.437 17.64C135.503 17.64 134.623 17.72 133.797 17.88C132.997 18.0133 132.277 18.2133 131.637 18.48C131.023 18.72 130.53 19.0267 130.157 19.4C129.81 19.7733 129.637 20.2 129.637 20.68C129.717 21.2667 130.077 21.8667 130.717 22.48C131.357 23.0667 132.143 23.6533 133.077 24.24C134.01 24.8 135.037 25.36 136.157 25.92C137.303 26.48 138.423 27.0133 139.517 27.52C140.877 28.16 142.05 28.76 143.037 29.32C144.023 29.8533 144.837 30.4533 145.477 31.12C146.117 31.76 146.597 32.4933 146.917 33.32C147.237 34.1467 147.397 35.1467 147.397 36.32C147.397 37.68 147.17 38.96 146.717 40.16C146.263 41.3333 145.597 42.36 144.717 43.24C143.863 44.12 142.823 44.8 141.597 45.28C140.37 45.7867 138.997 46.04 137.477 46.04C135.983 46.04 134.37 45.8133 132.637 45.36C130.903 44.9067 129.277 44.28 127.757 43.48C126.263 42.7067 125.01 41.8133 123.997 40.8C123.01 39.76 122.517 38.6667 122.517 37.52C122.517 36.9867 122.663 36.3067 122.957 35.48C123.277 34.6533 123.837 33.7867 124.637 32.88C124.717 33.68 125.143 34.6267 125.917 35.72C126.717 36.8133 127.903 37.8267 129.477 38.76C130.943 39.6133 132.45 40.24 133.997 40.64C135.57 41.0133 137.037 41.2 138.397 41.2C139.89 41.2 141.103 41.0133 142.037 40.64C142.97 40.2667 143.703 39.8267 144.237 39.32C144.77 38.7867 145.143 38.2533 145.357 37.72C145.57 37.1867 145.69 36.76 145.717 36.44C145.69 35.9067 145.437 35.4 144.957 34.92C144.503 34.4133 143.877 33.9333 143.077 33.48C142.303 33 141.397 32.52 140.357 32.04C139.317 31.56 138.237 31.08 137.117 30.6C135.437 29.8533 133.983 29.16 132.757 28.52C131.557 27.8533 130.557 27.1867 129.757 26.52C128.983 25.8267 128.41 25.1067 128.037 24.36C127.69 23.6133 127.517 22.76 127.517 21.8C127.517 20.3067 127.97 18.8933 128.877 17.56C129.783 16.2267 131.09 15.2133 132.797 14.52C133.65 14.1467 134.557 13.88 135.517 13.72C136.503 13.56 137.463 13.48 138.397 13.48C140.157 13.48 141.877 13.72 143.557 14.2C145.237 14.68 146.917 15.2933 148.597 16.04ZM151.787 27.68C151.654 27.52 151.534 27.1867 151.427 26.68C151.32 26.1467 151.267 25.6933 151.267 25.32C151.96 25.3733 152.627 25.4267 153.267 25.48C153.907 25.5067 154.494 25.5333 155.027 25.56C155.427 24.76 155.854 23.9733 156.307 23.2C156.787 22.4 157.24 21.68 157.667 21.04C158.12 20.3733 158.534 19.8133 158.907 19.36C159.307 18.9067 159.614 18.6133 159.827 18.48C160.094 18.48 160.427 18.5333 160.827 18.64C161.254 18.72 161.68 18.84 162.107 19C162.534 19.1333 162.92 19.28 163.267 19.44C163.614 19.6 163.854 19.76 163.987 19.92C163.187 20.9333 162.494 21.88 161.907 22.76C161.347 23.6133 160.734 24.6 160.067 25.72C160.6 25.72 161.134 25.7067 161.667 25.68C162.227 25.6533 162.787 25.6133 163.347 25.56C163.48 25.6933 163.587 25.8667 163.667 26.08C163.747 26.2667 163.787 26.4667 163.787 26.68C162.48 27.16 160.894 27.4267 159.027 27.48C158.36 28.76 157.76 30.04 157.227 31.32C156.72 32.5733 156.28 33.7867 155.907 34.96C155.56 36.1333 155.28 37.24 155.067 38.28C154.88 39.32 154.787 40.2533 154.787 41.08C154.787 42.2533 155.227 42.9067 156.107 43.04C156.907 42.9333 157.667 42.7333 158.387 42.44C159.107 42.1467 159.747 41.7733 160.307 41.32C160.467 41.56 160.56 41.76 160.587 41.92C160.427 42.16 160.147 42.44 159.747 42.76C159.374 43.08 158.96 43.3867 158.507 43.68C158.054 44 157.614 44.2667 157.187 44.48C156.76 44.6933 156.44 44.8133 156.227 44.84C155.56 44.8133 154.894 44.6667 154.227 44.4C153.56 44.1333 152.947 43.8 152.387 43.4C151.854 43 151.414 42.56 151.067 42.08C150.72 41.5733 150.547 41.08 150.547 40.6C150.547 39.96 150.627 39.16 150.787 38.2C150.974 37.2133 151.227 36.1467 151.547 35C151.867 33.8533 152.24 32.6533 152.667 31.4C153.094 30.1467 153.56 28.9067 154.067 27.68H151.787ZM168.209 44.4C166.689 44.24 165.476 43.5733 164.569 42.4C163.663 41.2267 163.209 39.7333 163.209 37.92C163.209 36.8533 163.369 35.7467 163.689 34.6C164.009 33.4533 164.463 32.3467 165.049 31.28C165.636 30.1867 166.329 29.16 167.129 28.2C167.929 27.24 168.796 26.4133 169.729 25.72C171.196 24.6267 172.569 24.08 173.849 24.08C174.703 24.5333 175.543 25.48 176.369 26.92C176.503 26.92 176.623 26.92 176.729 26.92C176.836 26.8933 176.956 26.88 177.089 26.88C178.503 26.88 179.209 28.1333 179.209 30.64C179.209 32.32 178.929 33.92 178.369 35.44C177.836 36.9333 177.076 38.2933 176.089 39.52C175.129 40.7467 173.969 41.7867 172.609 42.64C171.276 43.4667 169.809 44.0533 168.209 44.4ZM170.249 31.8C169.796 32.4133 169.369 33.08 168.969 33.8C168.569 34.52 168.223 35.2533 167.929 36C167.636 36.72 167.409 37.4267 167.249 38.12C167.089 38.7867 167.009 39.3867 167.009 39.92C167.009 40.56 167.116 41.1733 167.329 41.76C167.543 42.3467 167.783 42.68 168.049 42.76C169.249 42.4933 170.343 42 171.329 41.28C172.343 40.5333 173.209 39.6133 173.929 38.52C174.676 37.4267 175.249 36.1867 175.649 34.8C176.076 33.4133 176.289 31.9333 176.289 30.36C176.289 29.6667 176.249 29.12 176.169 28.72C176.089 28.32 175.956 27.9733 175.769 27.68C174.596 28.0267 173.543 28.5867 172.609 29.36C171.703 30.1333 170.916 30.9467 170.249 31.8ZM180.186 42.2C180.319 41.4267 180.546 40.4133 180.866 39.16C181.212 37.88 181.612 36.5333 182.066 35.12C182.519 33.68 182.999 32.24 183.506 30.8C184.012 29.36 184.506 28.0667 184.986 26.92C185.332 26.0933 185.639 25.4533 185.906 25C186.172 24.52 186.466 24.12 186.786 23.8C187.159 23.8533 187.546 23.9467 187.946 24.08C188.346 24.2133 188.732 24.3733 189.106 24.56C189.479 24.7467 189.812 24.9467 190.106 25.16C190.399 25.3467 190.626 25.5333 190.786 25.72C190.066 26.5733 189.426 27.5467 188.866 28.64C188.332 29.7333 187.786 31.1333 187.226 32.84C188.666 31.56 189.932 30.3333 191.026 29.16C192.146 27.9867 193.186 26.68 194.146 25.24C194.306 25.1067 194.586 25.04 194.986 25.04C195.359 25.04 195.719 25.1067 196.066 25.24C196.412 25.3467 196.652 25.5067 196.786 25.72C196.306 27 196.066 28.2667 196.066 29.52C196.066 30.6933 196.239 31.5733 196.586 32.16C196.559 32.32 196.372 32.6267 196.026 33.08C195.706 33.5333 195.346 33.96 194.946 34.36C194.226 33.9867 193.586 33.48 193.026 32.84C192.466 32.1733 192.052 31.4533 191.786 30.68C190.532 31.56 189.466 32.4267 188.586 33.28C187.706 34.1067 186.946 35.04 186.306 36.08C185.692 37.0933 185.159 38.2667 184.706 39.6C184.279 40.9333 183.866 42.52 183.466 44.36C183.226 44.3333 182.932 44.24 182.586 44.08C182.266 43.9467 181.932 43.7733 181.586 43.56C181.266 43.3467 180.972 43.12 180.706 42.88C180.439 42.64 180.266 42.4133 180.186 42.2ZM211.598 26.44C211.492 28.0933 211.198 29.52 210.718 30.72C210.238 31.8933 209.545 32.9333 208.638 33.84C207.758 34.72 206.678 35.52 205.398 36.24C204.118 36.96 202.625 37.6533 200.918 38.32C200.918 38.48 200.905 38.6533 200.878 38.84C200.878 39 200.878 39.1733 200.878 39.36C200.878 39.7067 200.905 40.0667 200.958 40.44C201.012 40.8133 201.105 41.16 201.238 41.48C201.372 41.8 201.558 42.0667 201.798 42.28C202.038 42.4667 202.345 42.56 202.718 42.56C203.438 42.56 204.145 42.4 204.838 42.08C205.532 41.76 206.185 41.3733 206.798 40.92C207.438 40.44 208.025 39.9333 208.558 39.4C209.118 38.84 209.612 38.3333 210.038 37.88C210.305 38.12 210.532 38.3467 210.718 38.56C209.518 40.16 208.198 41.4933 206.758 42.56C205.345 43.6 203.998 44.2667 202.718 44.56C200.878 44.3467 199.438 43.68 198.398 42.56C197.385 41.4133 196.878 40.04 196.878 38.44C196.878 37.3467 197.025 36.24 197.318 35.12C197.638 33.9733 198.065 32.88 198.598 31.84C199.158 30.7733 199.798 29.7733 200.518 28.84C201.265 27.9067 202.052 27.0933 202.878 26.4C203.732 25.7067 204.598 25.16 205.478 24.76C206.385 24.36 207.278 24.16 208.158 24.16C209.385 24.32 210.532 25.08 211.598 26.44ZM208.838 27.76C208.118 27.8667 207.372 28.16 206.598 28.64C205.825 29.12 205.092 29.76 204.398 30.56C203.732 31.36 203.118 32.2933 202.558 33.36C201.998 34.4267 201.558 35.5733 201.238 36.8C203.372 35.7333 205.145 34.4267 206.558 32.88C207.972 31.3067 208.732 29.6 208.838 27.76Z" fill="black"/>
</svg>
