<svg width="120" height="120" viewBox="0 0 120 120" fill="none" xmlns="http://www.w3.org/2000/svg">
<circle cx="60" cy="60" r="60" fill="#EAF7EA"/>
<g clip-path="url(#clip0_0_57)">
<path fill-rule="evenodd" clip-rule="evenodd" d="M60 88.0044C76.4896 88.0044 89.9385 76.3899 89.9385 62.1485C89.9385 47.9076 76.4896 36.293 60 36.293C43.5105 36.293 30.0615 47.9076 30.0615 62.1485C30.0615 76.3899 43.5105 88.0044 60 88.0044Z" fill="#4F7394"/>
<path fill-rule="evenodd" clip-rule="evenodd" d="M44.664 47.0008C44.5961 46.3574 41.5492 45.5975 40.5343 47.7026C39.5186 49.8075 41.3463 52.7897 44.799 53.0233C48.2525 53.2571 47.2367 52.7314 47.2367 52.7314L44.664 47.0008Z" fill="#F5AD7E"/>
<path fill-rule="evenodd" clip-rule="evenodd" d="M75.4094 47.0008C75.4773 46.3574 78.5238 45.5975 79.5395 47.7026C80.5548 49.8075 78.7271 52.7897 75.2739 53.0233C71.8212 53.2571 72.8366 52.7314 72.8366 52.7314L75.4093 47.0008H75.4094Z" fill="#F5AD7E"/>
<path fill-rule="evenodd" clip-rule="evenodd" d="M60 88.0044H32.1401C31.8175 75.7007 42.7784 68.5584 52.1907 65.893C52.9537 62.4601 52.759 58.0078 52.759 58.0078H67.2409C67.2409 58.0078 67.0462 62.4601 67.8097 65.893C77.2215 68.5585 88.1829 75.7007 87.8606 88.0044H60Z" fill="#F5AD7E"/>
<path fill-rule="evenodd" clip-rule="evenodd" d="M67.2409 58.0078C67.2409 58.0078 67.2025 58.8908 67.2273 60.1723C64.4762 66.1406 55.9366 66.812 52.7672 60.4205C52.8021 59.0057 52.759 58.0078 52.759 58.0078C57.5827 58.0078 62.4173 58.0078 67.2409 58.0078H67.2409Z" fill="#D79671"/>
<path fill-rule="evenodd" clip-rule="evenodd" d="M88.8101 88.0044C89.1394 75.8543 78.0893 68.7377 68.4401 65.9958C66.5082 69.697 53.5484 69.6807 51.6376 65.9738C41.9704 68.7001 30.8595 75.8217 31.1899 88.0044H88.81H88.8101Z" fill="#3C3E65"/>
<path fill-rule="evenodd" clip-rule="evenodd" d="M67.2394 67.211C63.9559 69.3033 55.9617 69.277 52.7613 67.1448V68.213L54.4569 88.0044H65.5431L67.2395 68.213V67.211H67.2394Z" fill="#4F7394"/>
<path fill-rule="evenodd" clip-rule="evenodd" d="M60 61.1787C42.0347 61.5512 32.964 23.2902 60 24.2704C87.0356 23.2901 77.966 61.5512 60 61.1787Z" fill="#F5AD7E"/>
<path fill-rule="evenodd" clip-rule="evenodd" d="M53.9639 42.7116C54.6857 43.161 54.8475 44.0298 54.3258 44.6511C53.8046 45.2725 52.797 45.4121 52.0756 44.963C51.3547 44.5139 51.1926 43.6455 51.7142 43.0234C52.2354 42.4021 53.2425 42.2624 53.9639 42.7116H53.9639Z" fill="#2D2E2F"/>
<path fill-rule="evenodd" clip-rule="evenodd" d="M66.1357 42.7116C65.4147 43.161 65.253 44.0298 65.7738 44.6511C66.2955 45.2725 67.3033 45.4121 68.0244 44.963C68.7454 44.5139 68.9075 43.6455 68.3862 43.0234C67.8647 42.4021 66.8576 42.2624 66.1357 42.7116Z" fill="#2D2E2F"/>
<path fill-rule="evenodd" clip-rule="evenodd" d="M51.98 47.7561C52.8968 48.3642 52.9368 49.2546 52.069 49.7447C51.2016 50.2349 49.755 50.1396 48.8381 49.5319C47.9212 48.9238 47.8807 48.0337 48.7482 47.5432C49.6159 47.0531 51.0627 47.1484 51.9799 47.7561H51.98Z" fill="#F2937B"/>
<path fill-rule="evenodd" clip-rule="evenodd" d="M68.1205 47.7561C67.2037 48.3642 67.1633 49.2546 68.0307 49.7447C68.8984 50.2349 70.3451 50.1396 71.262 49.5319C72.1789 48.9238 72.2192 48.0337 71.3515 47.5432C70.4841 47.0531 69.0374 47.1484 68.1205 47.7561Z" fill="#F2937B"/>
<path fill-rule="evenodd" clip-rule="evenodd" d="M54.6677 38.9382C54.6076 38.9155 54.548 38.8945 54.4863 38.8742C53.7845 38.6555 53.1892 38.5962 52.4309 38.6437C51.6878 38.7114 51.1332 38.8565 50.5113 39.1633C50.2204 39.3249 49.086 40.1181 49.4076 40.4107C49.539 40.4419 50.669 39.9436 51.0007 39.8504C51.5171 39.7184 51.9359 39.6686 52.4827 39.6781C52.9925 39.6978 53.3763 39.7622 53.841 39.9168C53.8536 39.9192 53.938 39.9516 53.9556 39.9585C54.9031 40.3565 54.8175 40.6119 55.4636 40.2293C56.459 39.7717 55.4342 39.2826 54.6677 38.9382Z" fill="#49332C"/>
<path fill-rule="evenodd" clip-rule="evenodd" d="M65.3324 38.9382C65.3924 38.9155 65.4521 38.8945 65.5136 38.8742C66.2155 38.6555 66.8112 38.5962 67.5691 38.6437C68.312 38.7114 68.8667 38.8565 69.4888 39.1633C69.7796 39.3249 70.9139 40.1181 70.592 40.4107C70.4614 40.4419 69.3313 39.9436 68.9994 39.8504C68.4828 39.7184 68.064 39.6686 67.5177 39.6781C67.0079 39.6978 66.624 39.7622 66.1593 39.9168C66.1463 39.9192 66.0623 39.9516 66.0447 39.9585C65.0972 40.3565 65.1824 40.6119 64.5368 40.2293C63.5419 39.7717 64.5659 39.2826 65.3324 38.9382H65.3324Z" fill="#49332C"/>
<path fill-rule="evenodd" clip-rule="evenodd" d="M55.34 51.0026C56.9955 50.9847 58.6451 50.9758 60.2948 50.9758C61.9445 50.9758 63.594 50.9847 65.2495 51.0026C65.2495 53.2463 62.6874 54.0476 60.3039 54.0476H60.2862C57.9018 54.0476 55.3401 53.2463 55.3401 51.0026H55.34Z" fill="#FEFEFE"/>
<path fill-rule="evenodd" clip-rule="evenodd" d="M59.1558 55.3841C59.0631 55.3377 59.0322 55.2346 59.0864 55.155C59.1408 55.0753 59.2593 55.0486 59.3524 55.095C59.6193 55.2306 59.9611 55.2983 60.3026 55.2983C60.6433 55.2983 60.9785 55.2309 61.2356 55.0964C61.327 55.0486 61.4463 55.074 61.5013 55.153C61.557 55.2319 61.528 55.335 61.4361 55.383C61.1159 55.5509 60.7092 55.6346 60.3026 55.6346C59.8967 55.6346 59.4858 55.5512 59.1558 55.3841Z" fill="#F5875E"/>
<path fill-rule="evenodd" clip-rule="evenodd" d="M59.8536 47.9238C59.7457 47.9238 59.6586 47.8482 59.6586 47.7557C59.6586 47.6624 59.7457 47.5876 59.8536 47.5876C60.3211 47.5876 60.8791 47.5835 61.3109 47.5204C61.6654 47.4683 61.9259 47.3856 61.9259 47.2456C61.9259 46.7619 61.3584 43.7536 61.3569 43.7451C61.34 43.6535 61.4126 43.5678 61.5182 43.5536C61.6241 43.5386 61.7238 43.6014 61.7407 43.6926C61.7423 43.7014 62.3157 46.7412 62.3157 47.2456C62.3157 47.6005 61.917 47.7723 61.3745 47.8517C60.9099 47.9198 60.334 47.9239 59.8537 47.9239L59.8536 47.9238Z" fill="#F5875E"/>
<path fill-rule="evenodd" clip-rule="evenodd" d="M78.4351 49.3637C78.4351 49.4569 78.3475 49.5322 78.24 49.5322C78.132 49.5322 78.0454 49.4569 78.0454 49.3637C78.0454 48.8529 77.9429 48.5315 77.7785 48.3567C77.6796 48.2523 77.5547 48.2038 77.4158 48.2011C77.2569 48.198 77.0748 48.2495 76.886 48.3421C76.3745 48.5919 75.8455 49.1224 75.553 49.7C75.4122 49.9783 75.2909 50.2641 75.221 50.4803C75.5201 50.3006 75.8502 50.2292 76.1284 50.2532C76.2866 50.2672 76.4307 50.3112 76.548 50.3841C76.672 50.4606 76.7639 50.5674 76.8097 50.701C76.889 50.9315 76.8282 51.2416 76.5409 51.6115C76.4813 51.6884 76.3608 51.7087 76.2717 51.6576C76.183 51.606 76.1587 51.5016 76.2183 51.4247C76.4326 51.1487 76.4855 50.9386 76.437 50.7973C76.4166 50.7373 76.3758 50.6898 76.3216 50.6563C76.2607 50.6183 76.1811 50.5949 76.0904 50.5871C75.8408 50.5651 75.5236 50.6597 75.2603 50.8888C75.1893 50.9501 75.1234 50.9847 75.0621 50.9959C74.9058 51.0251 74.8149 50.9657 74.7807 50.8336L74.7787 50.8247C74.7669 50.7746 74.7697 50.7078 74.7845 50.6284C74.8277 50.3891 74.9942 49.9657 75.1974 49.5661C75.5216 48.9252 76.1158 48.3329 76.6941 48.0503C76.9421 47.9293 77.1917 47.8614 77.4237 47.8659C77.6764 47.8712 77.9025 47.9573 78.0796 48.1455C78.2985 48.3777 78.4351 48.7698 78.4351 49.3637H78.4351Z" fill="#F5875E"/>
<path fill-rule="evenodd" clip-rule="evenodd" d="M41.955 49.3637C41.955 49.4569 41.8675 49.5322 41.7603 49.5322C41.6524 49.5322 41.5653 49.4569 41.5653 49.3637C41.5653 48.7698 41.7015 48.3777 41.9205 48.1455C42.0971 47.9573 42.3236 47.8712 42.5764 47.8659C42.8082 47.8614 43.0579 47.9293 43.3063 48.0503C43.8845 48.3329 44.4783 48.9251 44.8025 49.5661C45.0055 49.9657 45.1714 50.3892 45.2154 50.6284C45.23 50.7078 45.2328 50.7746 45.2217 50.8247L45.2189 50.8336C45.1848 50.9657 45.0946 51.0251 44.9379 50.9958C44.8771 50.9847 44.8108 50.9501 44.7398 50.8888C44.4764 50.6597 44.1597 50.5651 43.9096 50.5871C43.8189 50.5949 43.7392 50.6183 43.6788 50.6563C43.6243 50.6898 43.5838 50.7373 43.563 50.7973C43.5139 50.9386 43.5674 51.1487 43.7817 51.4247C43.8414 51.5016 43.8178 51.606 43.7279 51.6576C43.6396 51.7087 43.5188 51.6884 43.4591 51.6114C43.1717 51.2416 43.1109 50.9315 43.1902 50.701C43.2361 50.5674 43.3284 50.4606 43.452 50.3841C43.5694 50.3112 43.7135 50.2671 43.8712 50.2532C44.1498 50.2292 44.4799 50.3007 44.7794 50.4803C44.7095 50.2641 44.5878 49.9783 44.447 49.7C44.1541 49.1224 43.6254 48.5919 43.1149 48.3421C42.9253 48.2495 42.7428 48.198 42.5842 48.2011C42.4457 48.2038 42.3204 48.2523 42.2215 48.3567C42.0568 48.5315 41.9551 48.8529 41.9551 49.3637H41.955Z" fill="#F5875E"/>
<path fill-rule="evenodd" clip-rule="evenodd" d="M44.8362 49.3854C43.5881 47.295 42.4084 43.222 42.2388 39.4741C42.0889 36.1621 42.8067 33.1527 43.8445 31.2871C46.8517 25.885 53.6954 22.7377 59.733 22.8855C59.8222 22.8835 59.9113 22.8828 59.9999 22.8817C60.0891 22.8828 60.1777 22.8835 60.2665 22.8855C66.3048 22.7377 73.1483 25.885 76.1551 31.2871C77.194 33.1527 77.9103 36.1621 77.7608 39.4741C77.5912 43.222 76.4122 47.295 75.1637 49.3854C75.5871 44.6104 74.3458 42.5359 73.0926 41.4417C70.3063 38.704 70.8208 36.7627 70.9542 36.002C71.0697 35.3447 74.4474 33.0313 74.14 32.1789C73.138 29.4006 63.2078 32.5388 60.5471 32.5388C60.4528 32.5388 60.359 32.5371 60.2665 32.5344C60.1781 32.5371 60.0898 32.5385 59.9999 32.5388C59.9104 32.5385 59.8213 32.5371 59.733 32.5344C59.6404 32.5371 59.5474 32.5388 59.4531 32.5388C56.7917 32.5388 46.8622 29.4006 45.8601 32.1789C45.5528 33.0313 48.9297 35.3448 49.0456 36.002C49.179 36.7627 49.6935 38.7039 46.9077 41.4417C45.654 42.5359 44.4126 44.6104 44.836 49.3854H44.8362Z" fill="#49332C"/>
<path fill-rule="evenodd" clip-rule="evenodd" d="M52.6292 63.7473C51.1322 62.7661 44.3625 78.8476 45.8532 77.703C47.0323 76.7976 50.5646 72.512 53.7132 78.0849C53.0927 72.9056 53.0146 66.1938 52.6292 63.7474V63.7473Z" fill="#46587C"/>
<path fill-rule="evenodd" clip-rule="evenodd" d="M67.3709 63.7473C68.8679 62.7661 75.6375 78.8476 74.1468 77.703C72.9678 76.7976 69.4349 72.512 66.2873 78.0849C66.9074 72.9056 66.9859 66.1938 67.3709 63.7474V63.7473Z" fill="#46587C"/>
<path fill-rule="evenodd" clip-rule="evenodd" d="M45.5208 32.4006C47.4329 34.6055 50.8394 35.4184 56.3966 36.0275C61.6064 36.5987 67.8536 36.0105 71.9775 34.2334C78.3291 31.4962 77.7356 23.8732 77.0748 24.1461C69.2812 27.3679 66.5785 22.0961 60.9867 20.6222C56.7538 19.506 51.0608 19.4714 46.5227 24.0043C44.0081 26.5168 43.3213 29.8648 45.5208 32.4005V32.4006Z" fill="#5D3B2F"/>
<path fill-rule="evenodd" clip-rule="evenodd" d="M48.7549 30.7084C48.6806 30.6414 48.6838 30.5352 48.7615 30.4712C48.8397 30.4071 48.962 30.4098 49.0362 30.4769C50.0775 31.4247 52.6966 32.43 56.1257 32.891C58.8418 33.2567 62.0593 33.2767 65.3971 32.6537C71.6471 31.4867 74.9829 27.2157 75.944 25.7833C67.9553 29.2614 62.3416 28.4255 57.5325 27.7075C54.2917 27.2241 51.4211 26.7961 48.4515 27.8116C48.3514 27.8458 48.2388 27.8034 48.1996 27.717C48.16 27.6306 48.209 27.5329 48.3087 27.4987C51.3787 26.4489 54.2999 26.8849 57.598 27.3767C62.4598 28.1017 68.1535 28.9509 76.3244 25.2368C76.3777 25.2128 76.4429 25.21 76.501 25.2351C76.5971 25.2761 76.6368 25.3764 76.5897 25.4595C76.5791 25.4768 73.199 31.5405 65.4795 32.9821C62.0925 33.6147 58.8258 33.5936 56.0666 33.2221C52.5502 32.7493 49.8465 31.7016 48.755 30.7083L48.7549 30.7084Z" fill="#764D3B"/>
<path fill-rule="evenodd" clip-rule="evenodd" d="M75.7556 25.4884C75.8604 25.4687 75.964 25.5264 75.9868 25.6169C76.0095 25.7077 75.9429 25.7971 75.8381 25.8164C74.0412 26.1538 72.4378 26.334 70.711 26.1585C68.986 25.9839 67.146 25.4548 64.8811 24.3752C62.7196 23.3455 58.8563 22.1862 55.2298 22.4719C52.7472 22.6672 50.3755 23.5438 48.7467 25.6131C48.6866 25.6894 48.5661 25.7094 48.4778 25.6576C48.3891 25.6054 48.3659 25.5016 48.426 25.425C50.1309 23.2587 52.6059 22.3418 55.1944 22.1385C58.911 21.8456 62.8601 23.0293 65.0678 24.081C67.2857 25.1376 69.0798 25.6552 70.7553 25.8251C72.43 25.9948 73.9964 25.8182 75.7556 25.4885V25.4884Z" fill="#764D3B"/>
<path fill-rule="evenodd" clip-rule="evenodd" d="M39.6837 80.7815C39.6845 80.6426 39.816 80.531 39.9769 80.5323C40.1377 80.5331 40.2669 80.6466 40.2658 80.7852L40.1939 87.7472C40.1923 87.8863 40.0616 87.998 39.9008 87.9971C39.7402 87.9957 39.6107 87.8824 39.6123 87.7435L39.6837 80.7815Z" fill="#2F314D"/>
<path fill-rule="evenodd" clip-rule="evenodd" d="M79.806 80.7815C79.8068 80.6426 79.9388 80.531 80.0993 80.5323C80.2602 80.5331 80.3893 80.6466 80.3878 80.7852L80.3167 87.7472C80.3155 87.8863 80.1841 87.998 80.0231 87.9971C79.8625 87.9957 79.7331 87.8824 79.7343 87.7435L79.806 80.7815Z" fill="#2F314D"/>
<path fill-rule="evenodd" clip-rule="evenodd" d="M55.9409 52.5595C55.8338 52.5595 55.7462 52.4839 55.7462 52.3914C55.7462 52.2982 55.8338 52.2233 55.9409 52.2233H64.6486C64.7558 52.2233 64.8429 52.2982 64.8429 52.3914C64.8429 52.4839 64.7557 52.5595 64.6486 52.5595H55.9409Z" fill="#A5AAAB"/>
</g>
<defs>
<clipPath id="clip0_0_57">
<rect width="88" height="76" fill="white" transform="translate(16 16)"/>
</clipPath>
</defs>
</svg>
