<svg width="120" height="120" viewBox="0 0 120 120" fill="none" xmlns="http://www.w3.org/2000/svg">
<circle cx="60" cy="60" r="60" fill="#EAF7EA"/>
<path opacity="0.15" d="M60.5 95.875C71.2868 95.875 80.0312 94.8257 80.0312 93.5312C80.0312 92.2368 71.2868 91.1875 60.5 91.1875C49.7132 91.1875 40.9688 92.2368 40.9688 93.5312C40.9688 94.8257 49.7132 95.875 60.5 95.875Z" fill="#45413C"/>
<path d="M60.5 26.3438C67.1967 26.3438 73.6192 29.004 78.3544 33.7393C83.0897 38.4746 85.75 44.897 85.75 51.5937V84.5313C85.7502 85.103 85.5772 85.6615 85.2536 86.1329C84.93 86.6043 84.4711 86.9665 83.9375 87.1719C68.8944 93.2027 52.1056 93.2027 37.0625 87.1719C36.5347 86.9616 36.0825 86.5972 35.7648 86.1262C35.4471 85.6552 35.2786 85.0994 35.2813 84.5313V51.5937C35.2812 44.9024 37.9372 38.4847 42.6658 33.7503C47.3943 29.0159 53.8087 26.352 60.5 26.3438Z" fill="#A86C4D"/>
<path d="M60.5 26.3438C53.8033 26.3438 47.3808 29.004 42.6456 33.7393C37.9103 38.4746 35.25 44.897 35.25 51.5938V58.5781C35.25 51.8814 37.9103 45.459 42.6456 40.7237C47.3808 35.9884 53.8033 33.3281 60.5 33.3281C67.1967 33.3281 73.6192 35.9884 78.3544 40.7237C83.0897 45.459 85.75 51.8814 85.75 58.5781V51.5938C85.75 44.897 83.0897 38.4746 78.3544 33.7393C73.6192 29.004 67.1967 26.3438 60.5 26.3438Z" fill="#DE926A"/>
<path d="M60.5 26.3438C67.1967 26.3438 73.6192 29.004 78.3544 33.7393C83.0897 38.4746 85.75 44.897 85.75 51.5937V84.5313C85.7502 85.103 85.5772 85.6615 85.2536 86.1329C84.93 86.6043 84.4711 86.9665 83.9375 87.1719C68.8944 93.2027 52.1056 93.2027 37.0625 87.1719C36.5347 86.9616 36.0825 86.5972 35.7648 86.1262C35.4471 85.6552 35.2786 85.0994 35.2813 84.5313V51.5937C35.2812 44.9024 37.9372 38.4847 42.6658 33.7503C47.3943 29.0159 53.8087 26.352 60.5 26.3438Z" stroke="#45413C" stroke-linecap="round" stroke-linejoin="round"/>
<path d="M81.5469 56.8125C78.6113 55.9941 75.8976 54.5257 73.6066 52.5161C71.3157 50.5064 69.5063 48.007 68.3125 45.2031L66.8594 41.75C61.2708 49.2968 53.0093 54.4225 43.7656 56.0781L39.3906 56.875C38.3182 56.9404 37.311 57.4125 36.5747 58.195C35.8385 58.9775 35.4285 60.0115 35.4285 61.0859C35.4285 62.1604 35.8385 63.1944 36.5747 63.9769C37.311 64.7594 38.3182 65.2315 39.3906 65.2969H39.6562C40.4056 70.2721 42.9149 74.8134 46.7284 78.0955C50.5418 81.3776 55.4062 83.1826 60.4375 83.1826C65.4688 83.1826 70.3332 81.3776 74.1466 78.0955C77.96 74.8134 80.4694 70.2721 81.2187 65.2969H81.4844C82.5568 65.2315 83.564 64.7594 84.3002 63.9769C85.0365 63.1944 85.4465 62.1604 85.4465 61.0859C85.4465 60.0115 85.0365 58.9775 84.3002 58.195C83.564 57.4125 82.5568 56.9404 81.4844 56.875L81.5469 56.8125Z" fill="#FFCEBF" stroke="#45413C" stroke-linecap="round" stroke-linejoin="round"/>
<path d="M47.8906 60.2188C47.8999 60.5727 48.0135 60.9159 48.2171 61.2055C48.4208 61.4951 48.7055 61.7181 49.0354 61.8464C49.3653 61.9748 49.7259 62.0028 50.0717 61.927C50.4175 61.8512 50.7332 61.6749 50.9792 61.4203C51.2252 61.1657 51.3905 60.8441 51.4543 60.4959C51.5181 60.1476 51.4777 59.7883 51.338 59.463C51.1984 59.1377 50.9657 58.8609 50.6693 58.6673C50.3729 58.4737 50.0259 58.372 49.6719 58.375C49.4326 58.3749 49.1958 58.4229 48.9755 58.5163C48.7552 58.6097 48.556 58.7465 48.3897 58.9186C48.2235 59.0907 48.0936 59.2945 48.0078 59.5179C47.9221 59.7413 47.8822 59.9796 47.8906 60.2188Z" fill="#45413C" stroke="#45413C" stroke-linecap="round" stroke-linejoin="round"/>
<path d="M73.1094 60.2188C73.1001 60.5727 72.9865 60.9159 72.7829 61.2055C72.5792 61.4951 72.2945 61.7181 71.9646 61.8464C71.6347 61.9748 71.2741 62.0028 70.9283 61.927C70.5825 61.8512 70.2668 61.6749 70.0208 61.4203C69.7748 61.1657 69.6095 60.8441 69.5457 60.4959C69.4819 60.1476 69.5223 59.7883 69.662 59.463C69.8016 59.1377 70.0343 58.8609 70.3307 58.6673C70.6271 58.4737 70.9741 58.372 71.3281 58.375C71.5674 58.3749 71.8042 58.4229 72.0245 58.5163C72.2448 58.6097 72.444 58.7465 72.6103 58.9186C72.7765 59.0907 72.9064 59.2945 72.9922 59.5179C73.0779 59.7413 73.1178 59.9796 73.1094 60.2188Z" fill="#45413C" stroke="#45413C" stroke-linecap="round" stroke-linejoin="round"/>
<path d="M54.7344 71.6094C54.6039 71.6079 54.4747 71.6351 54.3559 71.6891C54.2371 71.7431 54.1316 71.8226 54.0469 71.9219C53.9601 72.018 53.8967 72.1329 53.8615 72.2575C53.8262 72.3822 53.8202 72.5133 53.8438 72.6406C54.1088 74.2143 54.9228 75.6432 56.1414 76.6737C57.3599 77.7041 58.9042 78.2695 60.5 78.2695C62.0958 78.2695 63.6401 77.7041 64.8586 76.6737C66.0772 75.6432 66.8912 74.2143 67.1563 72.6406C67.1798 72.5133 67.1738 72.3822 67.1386 72.2575C67.1033 72.1329 67.0399 72.018 66.9531 71.9219C66.8684 71.8226 66.7629 71.7431 66.6441 71.6891C66.5253 71.6351 66.3961 71.6079 66.2656 71.6094H54.7344Z" fill="#FF6242"/>
<path d="M60.5 74.375C58.6615 74.3183 56.8553 74.8673 55.3594 75.9375C55.9989 76.6729 56.7887 77.2625 57.6755 77.6665C58.5623 78.0706 59.5255 78.2797 60.5 78.2797C61.4745 78.2797 62.4377 78.0706 63.3245 77.6665C64.2113 77.2625 65.0011 76.6729 65.6406 75.9375C64.1447 74.8673 62.3385 74.3183 60.5 74.375Z" fill="#FFA694"/>
<path d="M54.7344 71.6094C54.6039 71.6079 54.4747 71.6351 54.3559 71.6891C54.2371 71.7431 54.1316 71.8226 54.0469 71.9219C53.9601 72.018 53.8967 72.1329 53.8615 72.2575C53.8262 72.3822 53.8202 72.5133 53.8438 72.6406C54.1088 74.2143 54.9228 75.6432 56.1414 76.6737C57.3599 77.7041 58.9042 78.2695 60.5 78.2695C62.0958 78.2695 63.6401 77.7041 64.8586 76.6737C66.0772 75.6432 66.8912 74.2143 67.1563 72.6406C67.1798 72.5133 67.1738 72.3822 67.1386 72.2575C67.1033 72.1329 67.0399 72.018 66.9531 71.9219C66.8684 71.8226 66.7629 71.7431 66.6441 71.6891C66.5253 71.6351 66.3961 71.6079 66.2656 71.6094H54.7344Z" stroke="#45413C" stroke-linecap="round" stroke-linejoin="round"/>
<path d="M46.7188 69.2344C48.0045 69.2344 49.0469 68.6118 49.0469 67.8437C49.0469 67.0757 48.0045 66.4531 46.7188 66.4531C45.433 66.4531 44.3906 67.0757 44.3906 67.8437C44.3906 68.6118 45.433 69.2344 46.7188 69.2344Z" fill="#FFB59E"/>
<path d="M74.2812 69.2344C75.567 69.2344 76.6094 68.6118 76.6094 67.8437C76.6094 67.0757 75.567 66.4531 74.2812 66.4531C72.9955 66.4531 71.9531 67.0757 71.9531 67.8437C71.9531 68.6118 72.9955 69.2344 74.2812 69.2344Z" fill="#FFB59E"/>
</svg>
